<svg id="visual" viewBox="0 0 900 600" width="900" height="600" xmlns="http://www.w3.org/2000/svg" xmlns:xlink="http://www.w3.org/1999/xlink" version="1.1"><path d="M0 91L13.7 88C27.3 85 54.7 79 82 74C109.3 69 136.7 65 163.8 60C191 55 218 49 245.2 55C272.3 61 299.7 79 327 83C354.3 87 381.7 77 409 71C436.3 65 463.7 63 491 66C518.3 69 545.7 77 573 81C600.3 85 627.7 85 654.8 82C682 79 709 73 736.2 69C763.3 65 790.7 63 818 66C845.3 69 872.7 77 886.3 81L900 85L900 0L886.3 0C872.7 0 845.3 0 818 0C790.7 0 763.3 0 736.2 0C709 0 682 0 654.8 0C627.7 0 600.3 0 573 0C545.7 0 518.3 0 491 0C463.7 0 436.3 0 409 0C381.7 0 354.3 0 327 0C299.7 0 272.3 0 245.2 0C218 0 191 0 163.8 0C136.7 0 109.3 0 82 0C54.7 0 27.3 0 13.7 0L0 0Z" fill="#787878"></path><path d="M0 205L13.7 203C27.3 201 54.7 197 82 197C109.3 197 136.7 201 163.8 191C191 181 218 157 245.2 170C272.3 183 299.7 233 327 265C354.3 297 381.7 311 409 311C436.3 311 463.7 297 491 287C518.3 277 545.7 271 573 275C600.3 279 627.7 293 654.8 301C682 309 709 311 736.2 285C763.3 259 790.7 205 818 182C845.3 159 872.7 167 886.3 171L900 175L900 83L886.3 79C872.7 75 845.3 67 818 64C790.7 61 763.3 63 736.2 67C709 71 682 77 654.8 80C627.7 83 600.3 83 573 79C545.7 75 518.3 67 491 64C463.7 61 436.3 63 409 69C381.7 75 354.3 85 327 81C299.7 77 272.3 59 245.2 53C218 47 191 53 163.8 58C136.7 63 109.3 67 82 72C54.7 77 27.3 83 13.7 86L0 89Z" fill="#666666"></path><path d="M0 385L13.7 398C27.3 411 54.7 437 82 437C109.3 437 136.7 411 163.8 390C191 369 218 353 245.2 367C272.3 381 299.7 425 327 450C354.3 475 381.7 481 409 465C436.3 449 463.7 411 491 405C518.3 399 545.7 425 573 433C600.3 441 627.7 431 654.8 429C682 427 709 433 736.2 425C763.3 417 790.7 395 818 384C845.3 373 872.7 373 886.3 373L900 373L900 173L886.3 169C872.7 165 845.3 157 818 180C790.7 203 763.3 257 736.2 283C709 309 682 307 654.8 299C627.7 291 600.3 277 573 273C545.7 269 518.3 275 491 285C463.7 295 436.3 309 409 309C381.7 309 354.3 295 327 263C299.7 231 272.3 181 245.2 168C218 155 191 179 163.8 189C136.7 199 109.3 195 82 195C54.7 195 27.3 199 13.7 201L0 203Z" fill="#545454"></path><path d="M0 541L13.7 544C27.3 547 54.7 553 82 545C109.3 537 136.7 515 163.8 500C191 485 218 477 245.2 482C272.3 487 299.7 505 327 520C354.3 535 381.7 547 409 541C436.3 535 463.7 511 491 501C518.3 491 545.7 495 573 499C600.3 503 627.7 507 654.8 515C682 523 709 535 736.2 532C763.3 529 790.7 511 818 507C845.3 503 872.7 513 886.3 518L900 523L900 371L886.3 371C872.7 371 845.3 371 818 382C790.7 393 763.3 415 736.2 423C709 431 682 425 654.8 427C627.7 429 600.3 439 573 431C545.7 423 518.3 397 491 403C463.7 409 436.3 447 409 463C381.7 479 354.3 473 327 448C299.7 423 272.3 379 245.2 365C218 351 191 367 163.8 388C136.7 409 109.3 435 82 435C54.7 435 27.3 409 13.7 396L0 383Z" fill="#494949"></path><path d="M0 601L13.7 601C27.3 601 54.7 601 82 601C109.3 601 136.7 601 163.8 601C191 601 218 601 245.2 601C272.3 601 299.7 601 327 601C354.3 601 381.7 601 409 601C436.3 601 463.7 601 491 601C518.3 601 545.7 601 573 601C600.3 601 627.7 601 654.8 601C682 601 709 601 736.2 601C763.3 601 790.7 601 818 601C845.3 601 872.7 601 886.3 601L900 601L900 521L886.3 516C872.7 511 845.3 501 818 505C790.7 509 763.3 527 736.2 530C709 533 682 521 654.8 513C627.7 505 600.3 501 573 497C545.7 493 518.3 489 491 499C463.7 509 436.3 533 409 539C381.7 545 354.3 533 327 518C299.7 503 272.3 485 245.2 480C218 475 191 483 163.8 498C136.7 513 109.3 535 82 543C54.7 551 27.3 545 13.7 542L0 539Z" fill="#3e3e3e"></path></svg>